<svg width="239" height="66" viewBox="0 0 239 66" fill="none" xmlns="http://www.w3.org/2000/svg">
<path d="M77.4058 17.8203H73.8408V1.72031H80.3498C81.5765 1.72031 82.6268 1.86598 83.5008 2.15731C84.3902 2.44865 85.0648 2.85498 85.5248 3.37631C86.0002 3.88231 86.3375 4.42665 86.5368 5.00931C86.7515 5.59198 86.8588 6.24365 86.8588 6.96431C86.8588 8.00698 86.5752 8.95765 86.0078 9.81631C85.4405 10.675 84.6738 11.296 83.7078 11.6793L88.1928 17.8203H83.8918L79.9588 12.3233H77.4058V17.8203ZM80.2808 5.05531H77.4058V8.98832H80.4188C81.2928 8.98832 81.9675 8.81198 82.4428 8.45932C82.9182 8.10665 83.1558 7.60831 83.1558 6.96431C83.1558 6.33565 82.9412 5.86031 82.5118 5.53831C82.0978 5.21631 81.3542 5.05531 80.2808 5.05531Z" fill="#EC1E29"/>
<path d="M88.7782 17.8203V1.72031H101.083V5.05531H92.3432V8.04531H100.508V11.2653H92.3432V14.4853H101.29V17.8203H88.7782Z" fill="#EC1E29"/>
<path d="M101.208 17.8203L108.269 1.72031H110.914L117.975 17.8203H114.249L112.938 14.8303H106.199L104.888 17.8203H101.208ZM109.557 7.01031L107.441 11.8173H111.627L109.557 7.01031Z" fill="#EC1E29"/>
<path d="M118.451 17.8203V1.72031H122.016V14.4853H130.71V17.8203H118.451Z" fill="#EC1E29"/>
<path d="M73.8408 40.8203V24.7203H86.1458V28.0553H77.4058V31.0453H85.5708V34.2653H77.4058V37.4853H86.3528V40.8203H73.8408Z" fill="#EC1E29"/>
<path d="M95.6083 37.4393C96.0223 37.148 96.2293 36.7876 96.2293 36.3583C96.2293 35.929 96.007 35.5687 95.5623 35.2773C95.1177 34.9707 94.5657 34.7406 93.9063 34.5873C93.247 34.4186 92.5263 34.204 91.7443 33.9433C90.9623 33.6827 90.2417 33.3913 89.5823 33.0693C88.923 32.7473 88.371 32.2643 87.9263 31.6203C87.4817 30.961 87.2593 30.1713 87.2593 29.2513C87.2593 27.9173 87.8343 26.7673 88.9843 25.8013C90.1497 24.8353 91.6523 24.3523 93.4923 24.3523C96.2063 24.3523 98.307 25.3413 99.7943 27.3193L97.4023 29.6193C96.237 28.3313 94.8877 27.6873 93.3543 27.6873C91.7443 27.6873 90.9393 28.1933 90.9393 29.2053C90.9393 29.5886 91.1617 29.9106 91.6063 30.1713C92.051 30.432 92.603 30.639 93.2623 30.7923C93.9217 30.9303 94.6423 31.1296 95.4243 31.3903C96.2063 31.651 96.927 31.9423 97.5863 32.2643C98.2457 32.5863 98.7977 33.077 99.2423 33.7363C99.687 34.3957 99.9093 35.1777 99.9093 36.0823C99.9093 37.539 99.3267 38.758 98.1613 39.7393C96.996 40.7053 95.547 41.1883 93.8143 41.1883C91.9897 41.1883 90.441 40.8203 89.1683 40.0843C87.8957 39.3483 86.9603 38.4053 86.3623 37.2553L88.9613 35.0933C89.498 35.952 90.1803 36.6267 91.0083 37.1173C91.8363 37.608 92.741 37.8533 93.7223 37.8533C94.5657 37.8533 95.1943 37.7153 95.6083 37.4393Z" fill="#EC1E29"/>
<path d="M99.6826 28.0553V24.7203H113.575V28.0553H108.4V40.8203H104.835V28.0553H99.6826Z" fill="#EC1E29"/>
<path d="M110.395 40.8203L117.456 24.7203H120.101L127.162 40.8203H123.436L122.125 37.8303H115.386L114.075 40.8203H110.395ZM118.744 30.0103L116.628 34.8173H120.814L118.744 30.0103Z" fill="#EC1E29"/>
<path d="M123.987 28.0553V24.7203H137.879V28.0553H132.704V40.8203H129.139V28.0553H123.987Z" fill="#EC1E29"/>
<path d="M138.443 40.8203V24.7203H150.748V28.0553H142.008V31.0453H150.173V34.2653H142.008V37.4853H150.955V40.8203H138.443Z" fill="#EC1E29"/>
<path d="M73.8408 63.8203V47.7203H78.9468C80.6182 47.7203 82.0672 47.9273 83.2938 48.3413C84.5205 48.7553 85.4788 49.338 86.1688 50.0893C86.8742 50.8253 87.3878 51.6456 87.7098 52.5503C88.0472 53.455 88.2158 54.4593 88.2158 55.5633C88.2158 58.0166 87.4185 60.01 85.8238 61.5433C84.2292 63.0613 81.8218 63.8203 78.6018 63.8203H73.8408ZM78.9008 51.0553H77.4058V60.4853H78.9008C82.6575 60.4853 84.5358 58.8447 84.5358 55.5633C84.5358 52.558 82.6575 51.0553 78.9008 51.0553Z" fill="#EC1E29"/>
<path d="M89.4745 63.8203V47.7203H101.78V51.0553H93.0395V54.0453H101.205V57.2653H93.0395V60.4853H101.987V63.8203H89.4745Z" fill="#EC1E29"/>
<path d="M119.016 47.7203L111.817 63.8203H109.333L101.766 47.7203H105.699L110.598 58.3923L115.175 47.7203H119.016Z" fill="#EC1E29"/>
<path d="M119.372 63.8203V47.7203H131.677V51.0553H122.937V54.0453H131.102V57.2653H122.937V60.4853H131.884V63.8203H119.372Z" fill="#EC1E29"/>
<path d="M133.388 63.8203V47.7203H136.953V60.4853H145.647V63.8203H133.388Z" fill="#EC1E29"/>
<path d="M144.825 55.7703C144.825 53.4397 145.623 51.4693 147.217 49.8593C148.827 48.2493 150.798 47.4443 153.128 47.4443C155.444 47.4443 157.399 48.2416 158.993 49.8363C160.603 51.4156 161.408 53.3937 161.408 55.7703C161.408 58.1317 160.603 60.1096 158.993 61.7043C157.399 63.299 155.444 64.0963 153.128 64.0963C150.813 64.0963 148.85 63.3067 147.24 61.7273C145.63 60.1327 144.825 58.147 144.825 55.7703ZM149.862 52.2513C148.973 53.156 148.528 54.329 148.528 55.7703C148.528 57.2117 148.973 58.3846 149.862 59.2893C150.767 60.194 151.856 60.6463 153.128 60.6463C154.432 60.6463 155.52 60.2017 156.394 59.3123C157.268 58.4076 157.705 57.227 157.705 55.7703C157.705 54.329 157.245 53.156 156.325 52.2513C155.421 51.3466 154.355 50.8943 153.128 50.8943C151.856 50.8943 150.767 51.3466 149.862 52.2513Z" fill="#EC1E29"/>
<path d="M166.244 63.8203H162.679V47.7203H169.349C170.653 47.7203 171.772 47.8813 172.707 48.2033C173.643 48.5253 174.348 48.9623 174.823 49.5143C175.314 50.0663 175.659 50.649 175.858 51.2623C176.073 51.8757 176.18 52.5427 176.18 53.2633C176.18 54.7967 175.628 56.1 174.524 57.1733C173.42 58.2313 171.695 58.7603 169.349 58.7603H166.244V63.8203ZM169.441 51.0553H166.244V55.4253H169.303C171.419 55.4253 172.477 54.697 172.477 53.2403C172.477 51.7836 171.465 51.0553 169.441 51.0553Z" fill="#EC1E29"/>
<path d="M177.325 63.8203V47.7203H180.637L185.789 55.4253L190.688 47.7203H193.908V63.8203H190.343V54.1603L186.157 60.5773H185.214L180.89 54.0913V63.8203H177.325Z" fill="#EC1E29"/>
<path d="M195.968 63.8203V47.7203H208.273V51.0553H199.533V54.0453H207.698V57.2653H199.533V60.4853H208.48V63.8203H195.968Z" fill="#EC1E29"/>
<path d="M224.015 63.8203H221.255L213.458 54.2753V63.8203H209.985V47.7203H212.722L220.542 57.2883V47.7203H224.015V63.8203Z" fill="#EC1E29"/>
<path d="M224.595 51.0553V47.7203H238.487V51.0553H233.312V63.8203H229.747V51.0553H224.595Z" fill="#EC1E29"/>
<path d="M66.5407 0.0403386L62.7109 0L62.0269 65.6964L65.8567 65.7368L66.5407 0.0403386Z" fill="#353535"/>
<path fill-rule="evenodd" clip-rule="evenodd" d="M27.0235 63.9045C27.0235 63.6866 27.0212 63.527 27.0235 63.3686C27.1223 58.3414 27.2212 53.3141 27.32 48.2868C27.3874 44.8761 27.4548 41.4643 27.5223 38.0537C27.5885 34.6913 27.6559 31.3289 27.7233 27.9665C27.7233 27.934 27.7278 27.9014 27.7256 27.8688C27.6818 27.4779 27.8379 27.2655 28.221 27.1049C30.4027 26.1915 32.5697 25.2456 34.7424 24.3121C40.3606 21.8967 45.9799 19.4825 51.5981 17.0694C51.7576 17.0009 51.9216 16.9436 52.1284 16.8627V23.7515C51.9913 23.8178 51.834 23.8975 51.6734 23.9706C46.3259 26.3567 40.9774 28.7394 35.6322 31.1301C34.966 31.4278 35.0502 31.2705 35.0379 32.0142C35.0053 33.8094 34.9828 35.6046 34.957 37.401C34.9559 37.574 34.957 37.747 34.957 38.0143C40.6471 35.3945 46.2518 32.8129 51.9025 30.21C51.925 30.3763 51.952 30.483 51.952 30.5897C51.9554 32.5815 51.9441 34.5744 51.9655 36.5651C51.97 36.9269 51.8239 37.0752 51.5262 37.2167C46.6798 39.5175 41.839 41.8294 36.996 44.1381C36.2916 44.4751 35.5861 44.8132 34.8604 45.1604C34.8244 47.5678 34.7885 49.9585 34.7503 52.4637C40.5853 49.5889 46.3226 46.7635 52.1239 43.9055C52.1373 44.1403 52.1564 44.2965 52.1564 44.4526C52.1587 46.5096 52.1441 48.5677 52.1688 50.6246C52.1733 51.0178 52.0317 51.1953 51.7015 51.3638C44.433 55.0576 37.1679 58.7626 29.9028 62.4643C29.104 62.8721 28.3053 63.2799 27.5054 63.6854C27.365 63.7573 27.2178 63.8169 27.0235 63.9045" fill="#EC1E29"/>
<path fill-rule="evenodd" clip-rule="evenodd" d="M6.38153 27.201C6.36243 27.3224 6.34446 27.3853 6.34334 27.4459C6.32312 30.3174 6.30626 33.1877 6.28043 36.058C6.27818 36.2951 6.38266 36.4052 6.57701 36.504C8.36548 37.4095 10.1416 38.3385 11.9391 39.2249C12.4457 39.4743 12.9984 39.6574 13.5489 39.7844C15.1149 40.145 16.2384 39.3586 16.4203 37.769C16.49 37.159 16.4855 36.5344 16.4473 35.9198C16.3518 34.41 15.716 33.1304 14.6689 32.0519C13.8545 31.2127 12.8895 30.5735 11.8627 30.0298C10.1775 29.1378 8.48231 28.266 6.79045 27.3875C6.67699 27.328 6.55791 27.2808 6.38153 27.201M6.22877 43.9669C6.19282 47.9202 6.15687 51.8319 6.1198 55.7953C5.95241 55.7256 5.81985 55.6784 5.69403 55.6167C3.99655 54.7808 2.30469 53.936 0.600475 53.1137C0.290413 52.9643 0.19043 52.7823 0.19043 52.4419C0.199417 40.5382 0.198294 28.6345 0.199417 16.732C0.199417 16.5747 0.216268 16.4185 0.228626 16.1995C0.425223 16.2916 0.56902 16.3523 0.707199 16.4242C5.12333 18.7507 9.54396 21.0672 13.9511 23.4107C15.0363 23.9881 15.9654 24.7992 16.8709 25.6249C18.2167 26.8517 19.4165 28.2076 20.322 29.7961C21.4959 31.8542 22.3115 34.0449 22.68 36.3939C22.9227 37.9308 23.0328 39.4732 22.8968 41.028C22.771 42.4548 22.4756 43.841 21.7813 45.1049C21.0881 46.3676 20.149 47.391 18.7054 47.8067C18.2414 47.9393 17.755 47.9954 17.2382 48.0954C19.5805 53.635 21.9172 59.1576 24.282 64.75C24.1068 64.6871 23.9877 64.6567 23.8798 64.6028C21.7296 63.5423 19.5828 62.4751 17.4303 61.4202C17.1944 61.3045 17.0472 61.1517 16.9461 60.9102C16.1968 59.1206 15.4385 57.3355 14.6824 55.547C13.6231 53.0395 12.5659 50.5298 11.5054 48.0224C11.2841 47.4955 11.0673 46.9675 10.8246 46.4519C10.7539 46.3013 10.6224 46.1452 10.4786 46.071C9.15975 45.3891 7.83188 44.7252 6.50625 44.0567C6.4366 44.023 6.35796 44.0084 6.22877 43.9669" fill="#EC1E29"/>
<path fill-rule="evenodd" clip-rule="evenodd" d="M10.7465 9.60003C10.9577 9.72585 11.0947 9.81123 11.2352 9.88987C12.6484 10.6706 14.0628 11.4492 15.4772 12.2299C18.6193 13.9634 21.7626 15.6934 24.8992 17.4381C25.1711 17.5897 25.3789 17.6167 25.662 17.4639C26.8225 16.8326 28.0054 16.2428 29.1648 15.6103C30.3702 14.952 31.5262 14.2161 32.5553 13.2983C33.0563 12.8512 33.5192 12.3681 33.8652 11.7873C34.5875 10.574 34.4662 9.42478 33.5124 8.37663C33.0125 7.82616 32.4126 7.40488 31.7779 7.03191C28.9525 5.37038 25.8957 4.88507 22.6749 5.28051C20.6909 5.52429 18.7811 6.06577 16.9118 6.76454C15.1368 7.42847 13.4471 8.2789 11.7463 9.1046C11.4396 9.25289 11.1363 9.4068 10.7465 9.60003M0 10.0145C1.10768 9.48428 2.12213 8.99784 3.13657 8.51365C6.27201 7.01951 9.38723 5.47819 12.5541 4.05258C13.9899 3.4055 15.5154 2.94265 17.0242 2.47643C19.3822 1.74734 21.7998 1.26203 24.2646 1.08116C25.9418 0.957582 27.6236 0.978927 29.3042 1.11935C31.1163 1.27101 32.8935 1.59456 34.6269 2.13941C36.6468 2.77526 38.5645 3.62569 40.2799 4.88728C40.9933 5.41191 41.637 6.01518 42.1336 6.75663C43.2525 8.42715 43.3356 10.1639 42.4268 11.9479C41.901 12.9803 41.1495 13.8409 40.3069 14.6216C38.8274 15.9922 37.2063 17.1707 35.4257 18.1211C31.8723 20.0208 28.3156 21.9148 24.76 23.81C24.6027 23.8943 24.4432 23.9718 24.2657 24.0628C16.2041 19.3961 8.14586 14.7306 0 10.0145" fill="#EC1E29"/>
</svg>
